<svg viewBox="0 0 30 30" fill="none" xmlns="http://www.w3.org/2000/svg">
<path fill-rule="evenodd" clip-rule="evenodd" d="M6.25 3.75H23.75C25.125 3.75 26.25 4.875 26.25 6.25V23.75C26.25 25.125 25.125 26.25 23.75 26.25H6.25C4.8625 26.25 3.75 25.125 3.75 23.75V6.25C3.75 4.875 4.8625 3.75 6.25 3.75ZM23.7501 23.75V6.25H6.25007V23.75H23.7501ZM15 15C12.9375 15 11.25 13.3125 11.25 11.25C11.25 9.1875 12.9375 7.5 15 7.5C17.0625 7.5 18.75 9.1875 18.75 11.25C18.75 13.3125 17.0625 15 15 15ZM13.7501 11.25C13.7501 10.5625 14.3126 10 15.0001 10C15.6876 10 16.2501 10.5625 16.2501 11.25C16.2501 11.9375 15.6876 12.5 15.0001 12.5C14.3126 12.5 13.7501 11.9375 13.7501 11.25ZM7.5 22.4999V20.5874C7.5 17.4624 12.4625 16.1124 15 16.1124C17.5375 16.1124 22.5 17.4624 22.5 20.5874V22.4999H7.5ZM15.0002 18.5999C16.6377 18.5999 18.7502 19.2999 19.6127 19.9999H10.3877C11.2377 19.2999 13.3627 18.5999 15.0002 18.5999Z" fill="#F2F2F2"/>
</svg>
